<?xml version="1.0" encoding="UTF-8"?>
<svg width="1200pt" height="1200pt" version="1.1" viewBox="0 0 1200 1200" xmlns="http://www.w3.org/2000/svg">
 <path d="m819.48 69.301c13.895 6.0117 20.305 22.141 14.328 36.074-6.0117 13.934-22.141 20.34-36.074 14.328-32.148-13.895-66.062-24.695-101.3-31.969-34.02-7.0195-69.551-10.691-106.27-10.691-144.4 0-275.15 58.535-369.8 153.18-94.645 94.645-153.18 225.4-153.18 369.8 0 144.43 58.535 275.19 153.18 369.8 94.645 94.645 225.4 153.18 369.8 153.18 144.43 0 275.19-58.535 369.8-153.18 94.645-94.645 153.18-225.4 153.18-369.8 0-22.141-1.3672-43.883-3.9961-65.16-2.6992-21.816-6.7305-43.094-11.988-63.793-3.6719-14.723 5.2578-29.664 20.016-33.371 14.723-3.707 29.699 5.2578 33.371 20.016 5.832 23.078 10.297 46.586 13.25 70.488 2.918 23.617 4.4648 47.594 4.4648 71.855 0 159.62-64.73 304.17-169.34 408.79-104.62 104.62-249.16 169.34-408.79 169.34s-304.17-64.73-408.79-169.34c-104.62-104.62-169.34-249.16-169.34-408.79s64.73-304.17 169.34-408.79c104.62-104.62 249.12-169.34 408.79-169.34 39.852 0 79.094 4.1406 117.25 11.988 38.844 7.9922 76.355 19.98 112.07 35.426zm-101.38 412.38 32.832 106.89 107.07 32.867c14.508 4.4648 22.645 19.836 18.215 34.344-2.8086 9.1094-9.8984 15.695-18.359 18.254l-106.89 32.832-32.906 107.07c-4.4648 14.508-19.836 22.645-34.344 18.18-9.1094-2.8086-15.695-9.8633-18.254-18.359l-32.832-106.89-107.07-32.906c-14.508-4.4648-22.645-19.836-18.215-34.344 2.8086-9.1094 9.8984-15.695 18.359-18.254l106.89-32.832 32.906-107.07c4.4648-14.508 19.836-22.645 34.344-18.215 9.1094 2.8086 15.695 9.8984 18.254 18.359zm-15.406 136.95-10.906-35.461-10.836 35.316c-2.5547 8.4609-9.1445 15.59-18.254 18.359l-35.461 10.906 35.281 10.836c8.4961 2.5547 15.59 9.1445 18.359 18.254l10.906 35.461 10.836-35.281c2.5547-8.4961 9.1445-15.59 18.254-18.359l35.461-10.906-35.281-10.836c-8.4609-2.5547-15.59-9.1445-18.359-18.254zm276.88-521.36 44.387 144.47 144.61 44.426c14.508 4.4648 22.68 19.836 18.215 34.344-2.8086 9.1094-9.8633 15.695-18.359 18.254l-144.47 44.387-44.426 144.61c-4.4648 14.508-19.836 22.68-34.344 18.215-9.1094-2.8086-15.695-9.8984-18.254-18.359l-44.387-144.47-144.61-44.426c-14.508-4.4648-22.645-19.836-18.215-34.344 2.8086-9.1094 9.8984-15.695 18.359-18.254l144.47-44.387 44.426-144.61c4.4648-14.508 19.836-22.645 34.344-18.215 9.1094 2.8086 15.695 9.8984 18.254 18.359zm-3.8867 174.53-22.43-73.043-22.391 72.863c-2.5547 8.4609-9.1445 15.551-18.254 18.359l-73.043 22.43 72.863 22.391c8.4961 2.5547 15.59 9.1445 18.395 18.254l22.43 73.043 22.391-72.863c2.5547-8.4961 9.1445-15.59 18.254-18.359l73.043-22.43-72.863-22.391c-8.4961-2.5547-15.59-9.1445-18.359-18.254zm-273.13-111.46c14.723 3.7422 23.652 18.719 19.906 33.48-3.7422 14.723-18.719 23.652-33.48 19.906-15.949-4.0664-32.258-7.1641-48.816-9.2539-16.344-2.0508-33.012-3.0977-50.004-3.0977-110.05 0-209.7 44.605-281.81 116.71-72.145 72.145-116.75 171.76-116.75 281.81 0 110.05 44.605 209.7 116.75 281.81 72.109 72.109 171.76 116.71 281.81 116.71 95.941 0 183.86-33.77 252.51-90.035 69.984-57.348 120.06-138.1 138.39-230.26 2.918-14.941 17.387-24.66 32.293-21.746 14.941 2.918 24.66 17.387 21.746 32.293-20.844 104.94-77.867 196.81-157.54 262.12-78.336 64.227-178.42 102.75-287.39 102.75-125.28 0-238.68-50.797-320.8-132.88s-132.88-195.52-132.88-320.8 50.762-238.68 132.88-320.8c82.082-82.117 195.52-132.88 320.8-132.88 19.152 0 38.051 1.1875 56.699 3.5273 19.008 2.375 37.586 5.9023 55.73 10.547z"/>
</svg>
